<svg id="Layer_1" data-name="Layer 1" xmlns="http://www.w3.org/2000/svg" viewBox="0 0 360 360"><defs><style>.cls-1{fill:#ef3f3f;}.cls-2{fill:#fff;}.cls-2,.cls-4,.cls-7,.cls-9{stroke:#231f20;}.cls-2,.cls-4,.cls-5,.cls-7,.cls-9{stroke-linecap:round;}.cls-10,.cls-11,.cls-2,.cls-4,.cls-5,.cls-7,.cls-9{stroke-miterlimit:10;}.cls-2,.cls-4,.cls-5{stroke-width:5px;}.cls-3{fill:#d1d2d1;}.cls-10,.cls-11,.cls-4,.cls-5,.cls-9{fill:none;}.cls-5{stroke:#848484;}.cls-6{fill:#cc2a2b;}.cls-7{fill:#f3ea3e;}.cls-11,.cls-7,.cls-9{stroke-width:2px;}.cls-8{fill:#231f20;}.cls-10{stroke:#000;stroke-width:3px;}.cls-11{stroke:#fff;}</style></defs><title>login-icon</title><circle class="cls-1" cx="180" cy="180" r="180"/><rect class="cls-2" x="277.83" y="384.1" width="153" height="223.94" rx="12" ry="12" transform="translate(16.7 -407.34) rotate(20)"/><path class="cls-3" d="M390.68,584.78L269.46,540.66a12,12,0,0,1-7.17-15.38l-14,38.56a12,12,0,0,0,7.17,15.38l121.22,44.12A12,12,0,0,0,392,616.17l14-38.56A12,12,0,0,1,390.68,584.78Z" transform="translate(-174.33 -316.07)"/><line class="cls-4" x1="148.82" y1="71.74" x2="133.43" y2="114.03"/><line class="cls-4" x1="122.57" y1="140.94" x2="93.41" y2="223.97"/><line class="cls-5" x1="116.48" y1="213.21" x2="184.14" y2="237.84"/><line class="cls-5" x1="192.59" y1="240.92" x2="217.97" y2="250.15"/><line class="cls-5" x1="110.32" y1="230.13" x2="135.7" y2="239.36"/><line class="cls-5" x1="152.61" y1="245.52" x2="211.81" y2="267.07"/><circle class="cls-6" cx="367.49" cy="459.91" r="37.41" transform="translate(-364.7 331.87) rotate(-70)"/><circle class="cls-7" cx="367.76" cy="459.16" r="18.37" transform="translate(-363.82 331.64) rotate(-70)"/><circle class="cls-8" cx="362.11" cy="453.58" r="1.84" transform="translate(-362.3 322.65) rotate(-70)"/><circle class="cls-8" cx="374.54" cy="458.1" r="1.84" transform="translate(-358.37 337.31) rotate(-70)"/><path class="cls-9" d="M378.81,463.18a11.76,11.76,0,1,1-22.1-8" transform="translate(-174.33 -316.07)"/><rect class="cls-4" x="277.83" y="384.1" width="153" height="223.94" rx="12" ry="12" transform="translate(16.7 -407.34) rotate(20)"/><circle class="cls-10" cx="387.02" cy="406.26" r="4.5" transform="translate(-301.44 314.92) rotate(-70)"/><circle class="cls-11" cx="58.17" cy="77.63" r="5.3"/><circle class="cls-11" cx="306.67" cy="95.43" r="5.3"/><circle class="cls-11" cx="289.67" cy="283.13" r="5.3"/><circle class="cls-11" cx="32.27" cy="211.03" r="7.9"/><polygon class="cls-11" points="176.11 19.05 168.67 31.93 161.23 19.05 176.11 19.05"/><polygon class="cls-11" points="49.35 148.22 62.24 155.66 49.35 163.1 49.35 148.22"/><polygon class="cls-11" points="303.09 197.36 295.65 210.25 288.2 197.36 303.09 197.36"/><polygon class="cls-11" points="143.09 315.86 135.65 328.75 128.21 315.86 143.09 315.86"/></svg>