<svg id="Layer_2" data-name="Layer 2" xmlns="http://www.w3.org/2000/svg" viewBox="0 0 97.8 22.56"><defs><style>.cls-1{fill:#fff;}</style></defs><title>Logo LGR-white</title><path class="cls-1" d="M1830.22,765.2a1.91,1.91,0,0,1-.32,2.69,0,0,0,0,0,0,.07,3.56,3.56,0,0,1,2.31,4,3.67,3.67,0,0,1-3.68,2.93c-1.14,0-2.14-.11-2.75-1a0,0,0,0,0-.08,0v2.87a0,0,0,0,0,0,0,6.28,6.28,0,0,0,6.48-.31,0,0,0,0,1,.06,0V781a3.67,3.67,0,0,1-3,3.67,3.56,3.56,0,0,1-4-2.32,0,0,0,0,0-.07,0,1.91,1.91,0,0,1-2.69.32,6.3,6.3,0,0,0,6.58,4.77,6.49,6.49,0,0,0,5.82-6.58v-9.54A6.3,6.3,0,0,0,1830.22,765.2Z" transform="translate(-1822.32 -764.88)"/><path class="cls-1" d="M1823.69,782.39a1.37,1.37,0,0,1-1.37-1.37v-9.85a6.3,6.3,0,0,1,6.29-6.29,1.37,1.37,0,1,1,0,2.73,3.56,3.56,0,0,0-3.56,3.56V781A1.37,1.37,0,0,1,1823.69,782.39Z" transform="translate(-1822.32 -764.88)"/><path class="cls-1" d="M1843.9,771.15H1848a3.51,3.51,0,0,1,2.59.9,2.75,2.75,0,0,1,.76,2v0a2.79,2.79,0,0,1-.53,1.76,3.05,3.05,0,0,1-1.38,1l2.17,3.18h-2.29l-1.91-2.85h-1.54v2.85h-2v-8.9Zm3.94,4.32a1.62,1.62,0,0,0,1.11-.34,1.16,1.16,0,0,0,.39-0.92v0a1.13,1.13,0,0,0-.41-1,1.8,1.8,0,0,0-1.13-.32h-1.94v2.55h2Z" transform="translate(-1822.32 -764.88)"/><path class="cls-1" d="M1857.37,780.2a5.07,5.07,0,0,1-1.9-.34,4.38,4.38,0,0,1-1.47-1,4.31,4.31,0,0,1-1-1.45,4.79,4.79,0,0,1-.34-1.83v0a4.55,4.55,0,0,1,2.8-4.24,4.73,4.73,0,0,1,1.87-.36,6.59,6.59,0,0,1,1.09.08,5.26,5.26,0,0,1,.91.24,4.22,4.22,0,0,1,.79.38,5.77,5.77,0,0,1,.71.52l-1.23,1.49a4.94,4.94,0,0,0-.51-0.38,3.25,3.25,0,0,0-.53-0.28,3.09,3.09,0,0,0-.59-0.18,3.53,3.53,0,0,0-.7-0.06,2.28,2.28,0,0,0-1,.22,2.68,2.68,0,0,0-.81.6,2.74,2.74,0,0,0-.55.88,2.92,2.92,0,0,0-.2,1.08v0a3.12,3.12,0,0,0,.2,1.13,2.65,2.65,0,0,0,.56.9,2.54,2.54,0,0,0,.85.59,2.71,2.71,0,0,0,1.09.21,3.08,3.08,0,0,0,1.84-.54v-1.28h-2v-1.69h3.86v3.86a6.52,6.52,0,0,1-1.63,1A5.37,5.37,0,0,1,1857.37,780.2Z" transform="translate(-1822.32 -764.88)"/><path class="cls-1" d="M1871,780.2a4.61,4.61,0,0,1-1.82-.36,4.47,4.47,0,0,1-1.45-1,4.43,4.43,0,0,1-1-1.46,4.69,4.69,0,0,1-.34-1.79v0a4.65,4.65,0,0,1,.34-1.79,4.59,4.59,0,0,1,1-1.46,4.43,4.43,0,0,1,1.46-1,4.76,4.76,0,0,1,1.88-.36,5.84,5.84,0,0,1,1.14.1,4.71,4.71,0,0,1,.93.28,4.06,4.06,0,0,1,.78.43,5.34,5.34,0,0,1,.66.56l-1.25,1.44a4.71,4.71,0,0,0-1.06-.74,2.71,2.71,0,0,0-1.21-.27,2.47,2.47,0,0,0-1,.22,2.45,2.45,0,0,0-.82.6,2.81,2.81,0,0,0-.53.88,3,3,0,0,0-.19,1.07v0a3.05,3.05,0,0,0,.19,1.08,2.84,2.84,0,0,0,.53.89,2.44,2.44,0,0,0,1.86.83,2.72,2.72,0,0,0,1.29-.28,5,5,0,0,0,1-.76l1.25,1.26a6.39,6.39,0,0,1-.71.66,4.17,4.17,0,0,1-1.77.82A5.82,5.82,0,0,1,1871,780.2Z" transform="translate(-1822.32 -764.88)"/><path class="cls-1" d="M1876.13,770.77h1.93v9.28h-1.93v-9.28Z" transform="translate(-1822.32 -764.88)"/><path class="cls-1" d="M1883.22,780.2a3.84,3.84,0,0,1-1.46-.27,3.55,3.55,0,0,1-1.16-.75,3.49,3.49,0,0,1-.77-1.12,3.41,3.41,0,0,1-.28-1.38v0a3.41,3.41,0,0,1,.28-1.38,3.51,3.51,0,0,1,.78-1.12,3.66,3.66,0,0,1,1.17-.76,4,4,0,0,1,2.94,0,3.57,3.57,0,0,1,1.16.75,3.5,3.5,0,0,1,.77,1.12,3.41,3.41,0,0,1,.28,1.38v0a3.41,3.41,0,0,1-.28,1.38,3.53,3.53,0,0,1-.78,1.13,3.68,3.68,0,0,1-1.17.76A3.81,3.81,0,0,1,1883.22,780.2Zm0-1.67a1.8,1.8,0,0,0,.74-0.15,1.64,1.64,0,0,0,.55-0.4,1.75,1.75,0,0,0,.35-0.59,2.09,2.09,0,0,0,.12-0.72v0a2,2,0,0,0-.13-0.72,1.81,1.81,0,0,0-.37-0.6,1.79,1.79,0,0,0-.57-0.41,1.71,1.71,0,0,0-.72-0.15,1.79,1.79,0,0,0-.74.15,1.64,1.64,0,0,0-.55.4,1.78,1.78,0,0,0-.35.59,2.12,2.12,0,0,0-.12.72v0a2,2,0,0,0,.13.72,1.82,1.82,0,0,0,.93,1A1.69,1.69,0,0,0,1883.25,778.54Z" transform="translate(-1822.32 -764.88)"/><path class="cls-1" d="M1890.62,780.17a3.18,3.18,0,0,1-.81-0.09,1.44,1.44,0,0,1-.62-0.34,1.62,1.62,0,0,1-.41-0.63,2.81,2.81,0,0,1-.15-1v-3.23h-0.81v-1.65h0.81V771.5h1.93v1.74h1.6v1.65h-1.6v2.92a0.57,0.57,0,0,0,.62.66,1.88,1.88,0,0,0,1-.25v1.55A2.88,2.88,0,0,1,1890.62,780.17Z" transform="translate(-1822.32 -764.88)"/><path class="cls-1" d="M1893.59,770.77h1.93v3.44a4.38,4.38,0,0,1,.36-0.42,2.56,2.56,0,0,1,.44-0.35,2.16,2.16,0,0,1,.53-0.24,2.26,2.26,0,0,1,.66-0.09,2.18,2.18,0,0,1,1.71.67,2.68,2.68,0,0,1,.6,1.86v4.41h-1.93v-3.79a1.53,1.53,0,0,0-.3-1,1.09,1.09,0,0,0-.86-0.35,1.15,1.15,0,0,0-.88.35,1.47,1.47,0,0,0-.32,1v3.79h-1.93v-9.28Z" transform="translate(-1822.32 -764.88)"/><path class="cls-1" d="M1901.55,770.77h2v1.72h-2v-1.72Zm0.05,2.47h1.93v6.81h-1.93v-6.81Z" transform="translate(-1822.32 -764.88)"/><path class="cls-1" d="M1905.35,773.24h1.93v1a4.38,4.38,0,0,1,.36-0.42,2.56,2.56,0,0,1,.44-0.35,2.16,2.16,0,0,1,.53-0.24,2.26,2.26,0,0,1,.66-0.09,2.18,2.18,0,0,1,1.71.67,2.68,2.68,0,0,1,.6,1.86v4.41h-1.93v-3.79a1.53,1.53,0,0,0-.3-1,1.09,1.09,0,0,0-.86-0.35,1.15,1.15,0,0,0-.88.35,1.47,1.47,0,0,0-.32,1v3.79h-1.93v-6.81Z" transform="translate(-1822.32 -764.88)"/><path class="cls-1" d="M1916.32,782.11a6.83,6.83,0,0,1-1.6-.18,6.05,6.05,0,0,1-1.41-.53l0.66-1.45a5.69,5.69,0,0,0,1.07.46,4.18,4.18,0,0,0,1.23.17,2,2,0,0,0,1.47-.47,1.87,1.87,0,0,0,.48-1.39v-0.33a3.48,3.48,0,0,1-.94.81,2.54,2.54,0,0,1-1.28.29,3.17,3.17,0,0,1-1.14-.21,2.84,2.84,0,0,1-1-.62,3,3,0,0,1-.67-1,3.48,3.48,0,0,1-.25-1.35v0a3.39,3.39,0,0,1,.25-1.35,3,3,0,0,1,.67-1,2.82,2.82,0,0,1,1-.62,3.11,3.11,0,0,1,1.13-.21,2.58,2.58,0,0,1,1.3.29,3.74,3.74,0,0,1,.9.72v-0.89h1.93v5.27a3.66,3.66,0,0,1-.86,2.68,2.8,2.8,0,0,1-1.21.7A6.09,6.09,0,0,1,1916.32,782.11Zm0.23-4.22a1.87,1.87,0,0,0,.66-0.11,1.54,1.54,0,0,0,.53-0.32,1.52,1.52,0,0,0,.35-0.5,1.58,1.58,0,0,0,.13-0.63v0a1.59,1.59,0,0,0-.13-0.64,1.52,1.52,0,0,0-.35-0.5,1.56,1.56,0,0,0-.53-0.32,1.87,1.87,0,0,0-.66-0.11,1.81,1.81,0,0,0-.65.11,1.57,1.57,0,0,0-.52.32,1.5,1.5,0,0,0-.35.5,1.57,1.57,0,0,0-.13.64v0a1.48,1.48,0,0,0,.47,1.14A1.68,1.68,0,0,0,1916.55,777.89Z" transform="translate(-1822.32 -764.88)"/></svg>