<svg id="Layer_2" data-name="Layer 2" xmlns="http://www.w3.org/2000/svg" viewBox="0 0 58 103.12"><defs><style>.cls-1{fill:#e61f37;}</style></defs><title>Logo LGR</title><path class="cls-1" d="M1548.11,289.46a8.71,8.71,0,0,1-1.74,12.5A16.25,16.25,0,1,1,1527.51,326v16.6a28.68,28.68,0,0,0,30-1.54v21.3a16.25,16.25,0,0,1-31.67,5.12,8.71,8.71,0,0,1-12.5,1.74,28.75,28.75,0,0,0,56.66-6.86v-45A28.8,28.8,0,0,0,1548.11,289.46Z" transform="translate(-1512 -288)"/><path class="cls-1" d="M1518.25,368a6.25,6.25,0,0,1-6.25-6.25v-45A28.78,28.78,0,0,1,1540.75,288a6.25,6.25,0,1,1,0,12.5,16.27,16.27,0,0,0-16.25,16.25v45A6.25,6.25,0,0,1,1518.25,368Z" transform="translate(-1512 -288)"/></svg>